<?xml version="1.0" encoding="UTF-8"?>
<!DOCTYPE svg PUBLIC "-//W3C//DTD SVG 1.1//EN" "http://www.w3.org/Graphics/SVG/1.1/DTD/svg11.dtd">
<svg xmlns="http://www.w3.org/2000/svg" version="1.1" width="54px" height="54px" style="shape-rendering:geometricPrecision; text-rendering:geometricPrecision; image-rendering:optimizeQuality; fill-rule:evenodd; clip-rule:evenodd" xmlns:xlink="http://www.w3.org/1999/xlink">
<g><path style="opacity:1" fill="#3d90cb" d="M -0.5,-0.5 C 0.833333,-0.5 2.16667,-0.5 3.5,-0.5C 2.32855,0.344644 0.995216,1.01131 -0.5,1.5C -0.5,0.833333 -0.5,0.166667 -0.5,-0.5 Z"/></g>
<g><path style="opacity:1" fill="#7fcff6" d="M 3.5,-0.5 C 17.8333,-0.5 32.1667,-0.5 46.5,-0.5C 49.0601,0.220313 50.8935,1.88698 52,4.5C 52.6667,19.5 52.6667,34.5 52,49.5C 51.5899,50.9007 51.0899,52.234 50.5,53.5C 33.5,53.5 16.5,53.5 -0.5,53.5C -0.5,36.1667 -0.5,18.8333 -0.5,1.5C 0.995216,1.01131 2.32855,0.344644 3.5,-0.5 Z"/></g>
<g><path style="opacity:1" fill="#055fa8" d="M 46.5,-0.5 C 48.8333,-0.5 51.1667,-0.5 53.5,-0.5C 53.5,17.5 53.5,35.5 53.5,53.5C 52.5,53.5 51.5,53.5 50.5,53.5C 51.0899,52.234 51.5899,50.9007 52,49.5C 52.6667,34.5 52.6667,19.5 52,4.5C 50.8935,1.88698 49.0601,0.220313 46.5,-0.5 Z"/></g>
<g><path style="opacity:1" fill="#fcfefe" d="M 41.5,18.5 C 30.1667,18.5 18.8333,18.5 7.5,18.5C 7.28099,17.325 7.61432,16.325 8.5,15.5C 13.9389,12.6972 19.4389,10.0305 25,7.5C 30.0726,10.2867 35.2393,12.9534 40.5,15.5C 41.3857,16.325 41.719,17.325 41.5,18.5 Z"/></g>
<g><path style="opacity:1" fill="#d8f0fb" d="M 7.5,18.5 C 18.8333,18.5 30.1667,18.5 41.5,18.5C 40.044,20.2845 39.044,22.2845 38.5,24.5C 37.1667,24.5 35.8333,24.5 34.5,24.5C 34.5,28.8333 34.5,33.1667 34.5,37.5C 35.8333,37.5 37.1667,37.5 38.5,37.5C 38.2627,38.791 38.596,39.791 39.5,40.5C 34.8806,41.8275 29.8806,42.4942 24.5,42.5C 19.1194,42.4942 14.1194,41.8275 9.5,40.5C 10.404,39.791 10.7373,38.791 10.5,37.5C 11.8333,37.5 13.1667,37.5 14.5,37.5C 14.5,33.1667 14.5,28.8333 14.5,24.5C 13.1667,24.5 11.8333,24.5 10.5,24.5C 10.385,22.0532 9.38499,20.0532 7.5,18.5 Z"/></g>
<g><path style="opacity:1" fill="#7dcff6" d="M 17.5,21.5 C 17.5,27.1667 17.5,32.8333 17.5,38.5C 17.6309,39.3764 17.2975,40.0431 16.5,40.5C 16.1667,37.3333 15.8333,34.1667 15.5,31C 15.5152,27.4242 16.1818,24.2575 17.5,21.5 Z"/></g>
<g><path style="opacity:1" fill="#7ecff6" d="M 25.5,23.5 C 25.5,28.5 25.5,33.5 25.5,38.5C 24.8333,41.1667 24.1667,41.1667 23.5,38.5C 23.5,33.5 23.5,28.5 23.5,23.5C 24.1667,20.8333 24.8333,20.8333 25.5,23.5 Z"/></g>
<g><path style="opacity:1" fill="#7dcff6" d="M 31.5,38.5 C 31.5,33.5 31.5,28.5 31.5,23.5C 31.3691,22.6236 31.7025,21.9569 32.5,21.5C 33.8333,27.8333 33.8333,34.1667 32.5,40.5C 31.7025,40.0431 31.3691,39.3764 31.5,38.5 Z"/></g>
<g><path style="opacity:1" fill="#fcfdfe" d="M 10.5,24.5 C 11.8333,24.5 13.1667,24.5 14.5,24.5C 14.5,28.8333 14.5,33.1667 14.5,37.5C 13.1667,37.5 11.8333,37.5 10.5,37.5C 10.5,33.1667 10.5,28.8333 10.5,24.5 Z"/></g>
<g><path style="opacity:1" fill="#b2e1f9" d="M 17.5,21.5 C 19.1137,23.0746 21.1137,23.7413 23.5,23.5C 23.5,28.5 23.5,33.5 23.5,38.5C 21.5,38.5 19.5,38.5 17.5,38.5C 17.5,32.8333 17.5,27.1667 17.5,21.5 Z"/></g>
<g><path style="opacity:1" fill="#fefffe" d="M 18.5,24.5 C 19.8333,24.5 21.1667,24.5 22.5,24.5C 22.5,28.8333 22.5,33.1667 22.5,37.5C 21.1667,37.5 19.8333,37.5 18.5,37.5C 18.5,33.1667 18.5,28.8333 18.5,24.5 Z"/></g>
<g><path style="opacity:1" fill="#aee0f8" d="M 25.5,23.5 C 27.5,23.5 29.5,23.5 31.5,23.5C 31.5,28.5 31.5,33.5 31.5,38.5C 29.5,38.5 27.5,38.5 25.5,38.5C 25.5,33.5 25.5,28.5 25.5,23.5 Z"/></g>
<g><path style="opacity:1" fill="#fefffe" d="M 26.5,24.5 C 27.8333,24.5 29.1667,24.5 30.5,24.5C 30.5,28.8333 30.5,33.1667 30.5,37.5C 29.1667,37.5 27.8333,37.5 26.5,37.5C 26.5,33.1667 26.5,28.8333 26.5,24.5 Z"/></g>
<g><path style="opacity:1" fill="#fdfefe" d="M 38.5,24.5 C 38.5,28.8333 38.5,33.1667 38.5,37.5C 37.1667,37.5 35.8333,37.5 34.5,37.5C 34.5,33.1667 34.5,28.8333 34.5,24.5C 35.8333,24.5 37.1667,24.5 38.5,24.5 Z"/></g>
<g><path style="opacity:1" fill="#bbe4f8" d="M 9.5,40.5 C 14.1194,41.8275 19.1194,42.4942 24.5,42.5C 29.8806,42.4942 34.8806,41.8275 39.5,40.5C 40.4013,41.2905 41.0679,42.2905 41.5,43.5C 30.1667,43.5 18.8333,43.5 7.5,43.5C 7.93205,42.2905 8.59872,41.2905 9.5,40.5 Z"/></g>
<g><path style="opacity:1" fill="#fefffe" d="M 7.5,43.5 C 18.8333,43.5 30.1667,43.5 41.5,43.5C 36.2082,44.8288 30.5415,45.4955 24.5,45.5C 18.4585,45.4955 12.7918,44.8288 7.5,43.5 Z"/></g>
</svg>
