<?xml version="1.0" encoding="UTF-8"?>
<!DOCTYPE svg PUBLIC "-//W3C//DTD SVG 1.1//EN" "http://www.w3.org/Graphics/SVG/1.1/DTD/svg11.dtd">
<svg xmlns="http://www.w3.org/2000/svg" version="1.1" width="81px" height="60px" style="shape-rendering:geometricPrecision; text-rendering:geometricPrecision; image-rendering:optimizeQuality; fill-rule:evenodd; clip-rule:evenodd" xmlns:xlink="http://www.w3.org/1999/xlink">
<g><path style="opacity:1" fill="#035da7" d="M -0.5,-0.5 C 26.5,-0.5 53.5,-0.5 80.5,-0.5C 80.5,19.5 80.5,39.5 80.5,59.5C 80.1667,59.5 79.8333,59.5 79.5,59.5C 79.5,40.1667 79.5,20.8333 79.5,1.5C 53.1667,1.5 26.8333,1.5 0.5,1.5C 0.5,20.8333 0.5,40.1667 0.5,59.5C 0.166667,59.5 -0.166667,59.5 -0.5,59.5C -0.5,39.5 -0.5,19.5 -0.5,-0.5 Z"/></g>
<g><path style="opacity:1" fill="#f5fafb" d="M 79.5,59.5 C 53.1667,59.5 26.8333,59.5 0.5,59.5C 0.5,40.1667 0.5,20.8333 0.5,1.5C 26.8333,1.5 53.1667,1.5 79.5,1.5C 79.5,20.8333 79.5,40.1667 79.5,59.5 Z"/></g>
<g><path style="opacity:1" fill="#86cef2" d="M 7.5,30.5 C 8.5,30.8333 9.16667,31.5 9.5,32.5C 8.66175,32.8417 8.32842,33.5084 8.5,34.5C 7.08362,37.9269 7.75028,40.9269 10.5,43.5C 11.4124,44.7382 11.5791,46.0715 11,47.5C 8.64251,50.0912 5.80918,51.7579 2.5,52.5C 4.82138,35.9218 5.15471,19.2551 3.5,2.5C 5.85684,2.33669 8.19018,2.50335 10.5,3C 11.8486,4.63545 11.6819,6.13545 10,7.5C 9.83059,13.8594 9.33059,20.1928 8.5,26.5C 6.61628,27.6927 6.11628,29.3594 7,31.5C 7.39877,31.2716 7.56544,30.9382 7.5,30.5 Z"/></g>
<g><path style="opacity:1" fill="#8ad0f2" d="M 15.5,2.5 C 18.1667,2.5 20.8333,2.5 23.5,2.5C 22.0272,8.31538 21.0272,14.3154 20.5,20.5C 19.8333,21.8333 19.1667,23.1667 18.5,24.5C 17.914,24.2907 17.414,23.9574 17,23.5C 16.6752,16.4755 16.1752,9.47553 15.5,2.5 Z"/></g>
<g><path style="opacity:1" fill="#84cef3" d="M 56.5,2.5 C 59.1667,2.5 61.8333,2.5 64.5,2.5C 62.6651,10.9604 61.9985,19.627 62.5,28.5C 60.4078,28.5614 58.9078,29.5614 58,31.5C 57.6657,25.6664 57.8324,19.8331 58.5,14C 58.6495,9.93148 57.9828,6.09815 56.5,2.5 Z"/></g>
<g><path style="opacity:1" fill="#85cef2" d="M 69.5,41.5 C 70.8333,39.1667 70.8333,36.8333 69.5,34.5C 69.7811,32.0372 70.7811,29.8705 72.5,28C 72,27.5 71.5,27 71,26.5C 70.6667,20.1667 70.3333,13.8333 70,7.5C 68.3181,6.13545 68.1514,4.63545 69.5,3C 71.8098,2.50335 74.1432,2.33669 76.5,2.5C 74.8453,19.2551 75.1786,35.9218 77.5,52.5C 74.1908,51.7579 71.3575,50.0912 69,47.5C 68.5099,45.4546 68.6765,43.4546 69.5,41.5 Z"/></g>
<g><path style="opacity:1" fill="#88cff3" d="M 29.5,32.5 C 26.3558,34.9926 25.8558,34.326 28,30.5C 28.498,27.5184 28.6646,24.5184 28.5,21.5C 28.7054,15.1222 28.3721,8.78887 27.5,2.5C 30.1667,2.5 32.8333,2.5 35.5,2.5C 34.4356,10.1311 34.2689,17.7978 35,25.5C 35.8893,24.1118 36.3893,24.2785 36.5,26C 33.9648,28.0384 31.6314,30.2051 29.5,32.5 Z"/></g>
<g><path style="opacity:1" fill="#286cac" d="M 26.5,24.5 C 23.2957,28.9224 21.129,33.9224 20,39.5C 18.9264,38.3816 17.7598,37.3816 16.5,36.5C 17.311,35.7836 17.9777,34.9503 18.5,34C 17.1023,33.9223 16.1023,32.7556 15.5,30.5C 13.677,31.7472 11.677,32.4139 9.5,32.5C 9.16667,31.5 8.5,30.8333 7.5,30.5C 7.41755,28.7483 8.25089,27.7483 10,27.5C 11.7892,28.4091 13.6226,28.5758 15.5,28C 12.9557,26.9015 12.9557,25.7348 15.5,24.5C 18.671,26.9234 20.671,25.9234 21.5,21.5C 22.7258,23.2779 24.3925,24.2779 26.5,24.5 Z"/></g>
<g><path style="opacity:1" fill="#dfeced" d="M 18.5,27.5 C 20.6456,27.6964 20.8122,28.6964 19,30.5C 18.5172,29.552 18.3505,28.552 18.5,27.5 Z"/></g>
<g><path style="opacity:1" fill="#1e66aa" d="M 41.5,27.5 C 44.0593,27.1984 46.3926,27.5318 48.5,28.5C 47.1411,29.0065 46.1411,30.0065 45.5,31.5C 44.6143,30.675 44.281,29.675 44.5,28.5C 43.5,28.5 42.5,28.5 41.5,28.5C 41.5,29.8333 41.5,31.1667 41.5,32.5C 44.9213,32.5176 47.5879,33.851 49.5,36.5C 49.5,37.5 49.5,38.5 49.5,39.5C 48.4726,41.1942 47.1392,42.5275 45.5,43.5C 42.01,43.755 39.3433,42.4217 37.5,39.5C 38.8794,36.3036 40.8794,35.8036 43.5,38C 41.1144,38.2835 40.4477,39.2835 41.5,41C 45.4918,42.1772 47.1584,40.6772 46.5,36.5C 43.8822,36.2208 41.3822,35.5541 39,34.5C 38.3333,32.5 38.3333,30.5 39,28.5C 39.6708,27.7476 40.5041,27.4142 41.5,27.5 Z"/></g>
<g><path style="opacity:1" fill="#8fd1f1" d="M 48.5,28.5 C 46.3926,27.5318 44.0593,27.1984 41.5,27.5C 42.5676,26.5655 43.901,26.2322 45.5,26.5C 45.7988,19.1093 45.4655,11.776 44.5,4.5C 47.1667,3.16667 49.8333,3.16667 52.5,4.5C 51.1667,13.5 51.1667,22.5 52.5,31.5C 49.9428,32.5341 48.6095,31.5341 48.5,28.5 Z"/></g>
<g><path style="opacity:1" fill="#588cb6" d="M 49.5,39.5 C 49.5,38.5 49.5,37.5 49.5,36.5C 52.1878,35.9759 53.6878,34.3092 54,31.5C 56.8127,34.1963 59.3127,33.863 61.5,30.5C 62.086,30.7093 62.586,31.0426 63,31.5C 63.1992,29.5975 64.0325,28.0975 65.5,27C 64.0403,26.1887 63.707,25.3554 64.5,24.5C 69.324,25.7717 70.4907,28.4383 68,32.5C 67,33.8333 66,33.8333 65,32.5C 64.8905,35.6457 63.5572,36.6457 61,35.5C 60.6924,36.3081 60.1924,36.9747 59.5,37.5C 58.6667,36.5 57.8333,35.5 57,34.5C 57.1953,36.1261 57.1953,37.7928 57,39.5C 56.224,36.3514 54.724,35.8514 52.5,38C 53.4706,39.2036 54.4706,39.7036 55.5,39.5C 53.5405,40.5192 51.5405,40.5192 49.5,39.5 Z"/></g>
<g><path style="opacity:1" fill="#dce9ec" d="M 65.5,28.5 C 66.7759,29.3864 66.7759,30.3864 65.5,31.5C 64.913,30.7666 64.913,29.7666 65.5,28.5 Z"/></g>
<g><path style="opacity:1" fill="#14afe9" d="M 8.5,34.5 C 11.8327,35.6409 14.8327,37.4742 17.5,40C 22.992,42.2206 28.6587,43.7206 34.5,44.5C 35.5862,44.62 36.2528,45.2867 36.5,46.5C 35.6716,49.4788 35.0049,52.4788 34.5,55.5C 39.2761,55.6708 39.6095,56.6708 35.5,58.5C 33.444,57.9524 31.7774,56.7858 30.5,55C 27.4465,54.8214 24.4465,54.3214 21.5,53.5C 20.0094,51.9884 18.1761,50.9884 16,50.5C 16.5316,46.225 14.6982,43.8917 10.5,43.5C 7.75028,40.9269 7.08362,37.9269 8.5,34.5 Z"/></g>
<g><path style="opacity:1" fill="#427daf" d="M 34.5,37.5 C 35.65,39.2667 34.9833,40.4334 32.5,41C 33.4158,41.2784 34.0825,41.7784 34.5,42.5C 32.6693,41.9478 31.0026,41.9478 29.5,42.5C 28.8076,41.9747 28.3076,41.3081 28,40.5C 25.726,41.8558 23.8927,41.3558 22.5,39C 23.1963,37.1072 24.0296,35.2738 25,33.5C 25.8333,35 27,36.1667 28.5,37C 25.9722,37.6689 25.9722,38.5022 28.5,39.5C 29.1667,37.8333 29.8333,36.1667 30.5,34.5C 30.6541,35.9091 30.8208,37.5758 31,39.5C 31.7096,38.0267 32.8762,37.3601 34.5,37.5 Z"/></g>
<g><path style="opacity:1" fill="#17afe9" d="M 69.5,34.5 C 70.8333,36.8333 70.8333,39.1667 69.5,41.5C 67.7274,43.4325 65.5607,44.7659 63,45.5C 62.7489,47.433 62.2489,49.2663 61.5,51C 59.3807,51.0976 57.714,51.9309 56.5,53.5C 53.5535,54.3214 50.5535,54.8214 47.5,55C 45.2,58.7524 42.5333,59.2524 39.5,56.5C 40.6888,55.5713 42.0222,55.238 43.5,55.5C 42.6745,51.8641 42.0078,48.1974 41.5,44.5C 43.099,44.7678 44.4324,44.4345 45.5,43.5C 49.6224,43.3031 53.6224,42.4698 57.5,41C 61.6871,38.9324 65.6871,36.7657 69.5,34.5 Z"/></g>
<g><path style="opacity:1" fill="#deecef" d="M 28.5,21.5 C 28.6646,24.5184 28.498,27.5184 28,30.5C 25.8558,34.326 26.3558,34.9926 29.5,32.5C 30.209,33.404 31.209,33.7373 32.5,33.5C 32.5271,35.1993 33.1938,36.5326 34.5,37.5C 32.8762,37.3601 31.7096,38.0267 31,39.5C 30.8208,37.5758 30.6541,35.9091 30.5,34.5C 29.8333,36.1667 29.1667,37.8333 28.5,39.5C 25.9722,38.5022 25.9722,37.6689 28.5,37C 27,36.1667 25.8333,35 25,33.5C 24.0296,35.2738 23.1963,37.1072 22.5,39C 23.8927,41.3558 25.726,41.8558 28,40.5C 28.3076,41.3081 28.8076,41.9747 29.5,42.5C 31.0026,41.9478 32.6693,41.9478 34.5,42.5C 34.5,43.1667 34.5,43.8333 34.5,44.5C 28.6587,43.7206 22.992,42.2206 17.5,40C 14.8327,37.4742 11.8327,35.6409 8.5,34.5C 8.32842,33.5084 8.66175,32.8417 9.5,32.5C 11.677,32.4139 13.677,31.7472 15.5,30.5C 16.1023,32.7556 17.1023,33.9223 18.5,34C 17.9777,34.9503 17.311,35.7836 16.5,36.5C 17.7598,37.3816 18.9264,38.3816 20,39.5C 21.129,33.9224 23.2957,28.9224 26.5,24.5C 27.1667,23.5 27.8333,22.5 28.5,21.5 Z"/></g>
</svg>
